<svg width="300" height="55" viewBox="0 0 300 55" fill="none" xmlns="http://www.w3.org/2000/svg">
<g clip-path="url(#clip0_1_2)">
<path d="M34.815 52.0706C28.8276 50.3473 25.492 44.8647 25.4814 36.7301C25.4778 34.1285 25.6414 32.8822 26.2049 31.2097C27.5864 27.1092 31.2438 24.0154 36.0562 22.8766C38.4514 22.31 39.1887 21.702 39.1887 20.2937C39.1887 19.8518 39.4738 18.5361 39.8221 17.3696C41.4049 12.071 44.3348 7.65393 47.4657 5.84636C50.7428 3.95508 52.3971 3.52888 56.361 3.55311C61.991 3.58783 64.7994 4.9946 68.7275 9.74711L70.8881 12.3606L72.8237 11.5891C82.1911 7.85486 91.5291 14.2117 92.2816 24.835L92.4873 27.7415L94.3318 28.5029C99.5998 30.677 102.076 35.243 101.627 41.9547C101.334 46.3441 99.5521 49.8478 96.73 51.5882L95.4033 52.4056L65.9182 52.4706C43.2611 52.5214 36.0594 52.4289 34.815 52.0706Z" fill="#3EAF7C"/>
<path d="M127.645 10.7784C127.55 9.81745 127.141 9.0709 126.418 8.53878C125.695 8.00666 124.714 7.7406 123.475 7.7406C122.634 7.7406 121.923 7.85974 121.343 8.098C120.763 8.32832 120.318 8.64997 120.009 9.06296C119.707 9.47594 119.556 9.94452 119.556 10.4687C119.54 10.9055 119.631 11.2867 119.83 11.6124C120.036 11.938 120.318 12.2199 120.676 12.4582C121.033 12.6885 121.446 12.891 121.915 13.0658C122.383 13.2325 122.884 13.3755 123.416 13.4946L125.608 14.0188C126.672 14.2571 127.649 14.5747 128.538 14.9718C129.428 15.3689 130.198 15.8574 130.85 16.4372C131.501 17.0169 132.005 17.6999 132.363 18.4862C132.728 19.2725 132.915 20.1739 132.922 21.1905C132.915 22.6836 132.533 23.9781 131.779 25.0741C131.032 26.1622 129.952 27.008 128.538 27.6116C127.133 28.2073 125.437 28.5051 123.452 28.5051C121.482 28.5051 119.766 28.2033 118.305 27.5997C116.852 26.9961 115.716 26.1026 114.898 24.9193C114.088 23.728 113.663 22.2547 113.623 20.4995H118.615C118.67 21.3175 118.905 22.0006 119.318 22.5486C119.739 23.0886 120.299 23.4976 120.997 23.7756C121.704 24.0456 122.502 24.1807 123.392 24.1807C124.266 24.1807 125.024 24.0536 125.667 23.7994C126.319 23.5453 126.823 23.1919 127.18 22.7392C127.538 22.2865 127.716 21.7663 127.716 21.1786C127.716 20.6306 127.554 20.1699 127.228 19.7966C126.91 19.4234 126.442 19.1057 125.822 18.8436C125.211 18.5815 124.46 18.3432 123.571 18.1288L120.914 17.4617C118.857 16.9613 117.233 16.179 116.042 15.1148C114.85 14.0506 114.259 12.617 114.267 10.8142C114.259 9.33696 114.652 8.04637 115.446 6.94243C116.248 5.83848 117.348 4.97677 118.746 4.35729C120.144 3.73781 121.732 3.42807 123.511 3.42807C125.322 3.42807 126.902 3.73781 128.253 4.35729C129.611 4.97677 130.667 5.83848 131.421 6.94243C132.176 8.04637 132.565 9.32504 132.589 10.7784H127.645ZM146.03 9.86113V13.6733H135.01V9.86113H146.03ZM137.512 5.47712H142.587V22.5366C142.587 23.0052 142.658 23.3706 142.801 23.6327C142.944 23.8868 143.143 24.0655 143.397 24.1687C143.659 24.272 143.961 24.3236 144.302 24.3236C144.541 24.3236 144.779 24.3038 145.017 24.264C145.255 24.2164 145.438 24.1807 145.565 24.1568L146.363 27.9333C146.109 28.0127 145.752 28.104 145.291 28.2073C144.831 28.3185 144.271 28.386 143.611 28.4098C142.388 28.4574 141.316 28.2946 140.395 27.9214C139.482 27.5481 138.771 26.9683 138.262 26.1821C137.754 25.3958 137.504 24.403 137.512 23.2038V5.47712ZM149.336 28.1596V9.86113H154.256V13.0538H154.446C154.78 11.9181 155.34 11.0604 156.126 10.4806C156.912 9.8929 157.818 9.59904 158.842 9.59904C159.096 9.59904 159.37 9.61493 159.664 9.6467C159.958 9.67847 160.216 9.72215 160.439 9.77774V14.2809C160.2 14.2094 159.871 14.1459 159.45 14.0903C159.029 14.0347 158.644 14.0069 158.294 14.0069C157.548 14.0069 156.881 14.1697 156.293 14.4953C155.713 14.813 155.253 15.2578 154.911 15.8296C154.577 16.4014 154.411 17.0606 154.411 17.8072V28.1596H149.336ZM174.797 20.3685V9.86113H179.872V28.1596H174.999V24.8359H174.809C174.396 25.9081 173.709 26.7698 172.748 27.421C171.795 28.0723 170.631 28.3979 169.257 28.3979C168.034 28.3979 166.958 28.1199 166.029 27.564C165.1 27.008 164.373 26.2178 163.849 25.1933C163.333 24.1687 163.07 22.9417 163.063 21.5121V9.86113H168.138V20.6067C168.145 21.6868 168.435 22.5406 169.007 23.168C169.579 23.7955 170.345 24.1092 171.306 24.1092C171.918 24.1092 172.49 23.9702 173.022 23.6922C173.554 23.4063 173.983 22.9854 174.308 22.4294C174.642 21.8735 174.805 21.1865 174.797 20.3685ZM192.199 28.517C190.325 28.517 188.712 28.1199 187.362 27.3257C186.02 26.5236 184.988 25.4117 184.265 23.99C183.55 22.5684 183.193 20.9324 183.193 19.0819C183.193 17.2075 183.554 15.5635 184.277 14.1498C185.007 12.7282 186.044 11.6203 187.386 10.8261C188.728 10.0239 190.325 9.62287 192.175 9.62287C193.771 9.62287 195.169 9.91276 196.369 10.4925C197.568 11.0723 198.517 11.8864 199.216 12.9347C199.915 13.9831 200.3 15.2141 200.371 16.6278H195.582C195.447 15.7144 195.09 14.9798 194.51 14.4238C193.938 13.86 193.188 13.578 192.259 13.578C191.472 13.578 190.785 13.7924 190.198 14.2213C189.618 14.6422 189.165 15.2578 188.839 16.0678C188.514 16.8779 188.351 17.8588 188.351 19.0104C188.351 20.1779 188.51 21.1706 188.828 21.9886C189.153 22.8067 189.61 23.4301 190.198 23.859C190.785 24.2879 191.472 24.5023 192.259 24.5023C192.838 24.5023 193.358 24.3832 193.819 24.1449C194.288 23.9067 194.673 23.5612 194.975 23.1085C195.284 22.6478 195.487 22.0959 195.582 21.4526H200.371C200.292 22.8504 199.911 24.0814 199.228 25.1456C198.553 26.2019 197.619 27.0279 196.428 27.6235C195.237 28.2192 193.827 28.517 192.199 28.517ZM213.354 9.86113V13.6733H202.334V9.86113H213.354ZM204.836 5.47712H209.911V22.5366C209.911 23.0052 209.982 23.3706 210.125 23.6327C210.268 23.8868 210.467 24.0655 210.721 24.1687C210.983 24.272 211.285 24.3236 211.626 24.3236C211.864 24.3236 212.103 24.3038 212.341 24.264C212.579 24.2164 212.762 24.1807 212.889 24.1568L213.687 27.9333C213.433 28.0127 213.076 28.104 212.615 28.2073C212.154 28.3185 211.594 28.386 210.935 28.4098C209.712 28.4574 208.64 28.2946 207.719 27.9214C206.805 27.5481 206.095 26.9683 205.586 26.1821C205.078 25.3958 204.828 24.403 204.836 23.2038V5.47712ZM228.394 20.3685V9.86113H233.469V28.1596H228.596V24.8359H228.406C227.993 25.9081 227.306 26.7698 226.345 27.421C225.392 28.0723 224.228 28.3979 222.854 28.3979C221.631 28.3979 220.555 28.1199 219.626 27.564C218.697 27.008 217.97 26.2178 217.446 25.1933C216.93 24.1687 216.667 22.9417 216.659 21.5121V9.86113H221.734V20.6067C221.742 21.6868 222.032 22.5406 222.604 23.168C223.176 23.7955 223.942 24.1092 224.903 24.1092C225.515 24.1092 226.087 23.9702 226.619 23.6922C227.151 23.4063 227.58 22.9854 227.905 22.4294C228.239 21.8735 228.402 21.1865 228.394 20.3685ZM237.528 28.1596V9.86113H242.448V13.0538H242.639C242.973 11.9181 243.532 11.0604 244.319 10.4806C245.105 9.8929 246.01 9.59904 247.035 9.59904C247.289 9.59904 247.563 9.61493 247.857 9.6467C248.151 9.67847 248.409 9.72215 248.631 9.77774V14.2809C248.393 14.2094 248.063 14.1459 247.642 14.0903C247.222 14.0347 246.836 14.0069 246.487 14.0069C245.74 14.0069 245.073 14.1697 244.485 14.4953C243.906 14.813 243.445 15.2578 243.104 15.8296C242.77 16.4014 242.603 17.0606 242.603 17.8072V28.1596H237.528ZM255.949 28.5051C254.781 28.5051 253.741 28.3026 252.828 27.8975C251.914 27.4845 251.192 26.877 250.659 26.0748C250.135 25.2647 249.873 24.2561 249.873 23.0489C249.873 22.0323 250.06 21.1786 250.433 20.4876C250.806 19.7966 251.315 19.2407 251.958 18.8198C252.601 18.3988 253.332 18.0812 254.15 17.8667C254.976 17.6523 255.842 17.5014 256.747 17.414C257.811 17.3028 258.669 17.1996 259.32 17.1043C259.971 17.001 260.444 16.8501 260.738 16.6516C261.032 16.453 261.179 16.1592 261.179 15.77V15.6985C261.179 14.944 260.94 14.3603 260.464 13.9473C259.995 13.5343 259.328 13.3278 258.462 13.3278C257.549 13.3278 256.822 13.5304 256.282 13.9354C255.742 14.3325 255.385 14.8329 255.21 15.4365L250.516 15.0552C250.755 13.9433 251.223 12.9824 251.922 12.1723C252.621 11.3542 253.523 10.7268 254.626 10.29C255.738 9.84525 257.025 9.62287 258.486 9.62287C259.503 9.62287 260.476 9.742 261.405 9.98026C262.342 10.2185 263.172 10.5878 263.895 11.0882C264.626 11.5885 265.201 12.2318 265.622 13.0181C266.043 13.7964 266.254 14.7296 266.254 15.8177V28.1596H261.441V25.6221H261.298C261.004 26.194 260.611 26.6983 260.118 27.1351C259.626 27.564 259.034 27.9015 258.343 28.1477C257.652 28.386 256.854 28.5051 255.949 28.5051ZM257.402 25.0027C258.149 25.0027 258.808 24.8557 259.38 24.5619C259.952 24.2601 260.4 23.855 260.726 23.3467C261.052 22.8384 261.214 22.2626 261.214 21.6193V19.6775C261.056 19.7808 260.837 19.8761 260.559 19.9634C260.289 20.0428 259.983 20.1183 259.642 20.1898C259.3 20.2533 258.959 20.3129 258.617 20.3685C258.276 20.4161 257.966 20.4598 257.688 20.4995C257.092 20.5869 256.572 20.7259 256.128 20.9165C255.683 21.1071 255.337 21.3652 255.091 21.6908C254.845 22.0085 254.722 22.4056 254.722 22.8821C254.722 23.5731 254.972 24.1012 255.472 24.4666C255.981 24.824 256.624 25.0027 257.402 25.0027ZM275.266 3.76164V28.1596H270.191V3.76164H275.266Z" fill="#42B983"/>
<path d="M119.173 49.4644C118.286 49.4644 117.522 49.255 116.882 48.8363C116.241 48.4176 115.749 47.8408 115.404 47.1059C115.059 46.3711 114.887 45.5316 114.887 44.5874C114.887 43.6268 115.063 42.7791 115.416 42.0442C115.773 41.3053 116.27 40.7285 116.906 40.3139C117.547 39.8952 118.294 39.6858 119.148 39.6858C119.813 39.6858 120.412 39.8089 120.946 40.0553C121.48 40.3016 121.917 40.6464 122.258 41.0898C122.598 41.5331 122.81 42.0504 122.892 42.6415H121.439C121.328 42.2105 121.081 41.8287 120.7 41.4962C120.322 41.1596 119.813 40.9912 119.173 40.9912C118.606 40.9912 118.109 41.139 117.682 41.4346C117.26 41.7261 116.929 42.1386 116.691 42.6723C116.457 43.2019 116.34 43.8238 116.34 44.5381C116.34 45.2689 116.455 45.9052 116.685 46.4471C116.919 46.9889 117.247 47.4097 117.67 47.7094C118.097 48.0091 118.598 48.1589 119.173 48.1589C119.55 48.1589 119.893 48.0932 120.201 47.9619C120.509 47.8305 120.769 47.6417 120.983 47.3954C121.196 47.149 121.348 46.8535 121.439 46.5086H122.892C122.81 47.0669 122.607 47.5698 122.282 48.0173C121.962 48.4607 121.537 48.8137 121.008 49.0764C120.482 49.3351 119.87 49.4644 119.173 49.4644ZM128.859 49.4644C128.005 49.4644 127.256 49.2612 126.611 48.8548C125.971 48.4483 125.47 47.8798 125.109 47.149C124.752 46.4183 124.573 45.5644 124.573 44.5874C124.573 43.6022 124.752 42.7421 125.109 42.0073C125.47 41.2724 125.971 40.7018 126.611 40.2954C127.256 39.889 128.005 39.6858 128.859 39.6858C129.713 39.6858 130.46 39.889 131.1 40.2954C131.745 40.7018 132.246 41.2724 132.603 42.0073C132.964 42.7421 133.145 43.6022 133.145 44.5874C133.145 45.5644 132.964 46.4183 132.603 47.149C132.246 47.8798 131.745 48.4483 131.1 48.8548C130.46 49.2612 129.713 49.4644 128.859 49.4644ZM128.859 48.1589C129.507 48.1589 130.041 47.9927 130.46 47.6601C130.879 47.3276 131.188 46.8904 131.39 46.3485C131.591 45.8066 131.691 45.2196 131.691 44.5874C131.691 43.9552 131.591 43.3661 131.39 42.8201C131.188 42.2741 130.879 41.8328 130.46 41.4962C130.041 41.1596 129.507 40.9912 128.859 40.9912C128.21 40.9912 127.676 41.1596 127.258 41.4962C126.839 41.8328 126.529 42.2741 126.328 42.8201C126.127 43.3661 126.026 43.9552 126.026 44.5874C126.026 45.2196 126.127 45.8066 126.328 46.3485C126.529 46.8904 126.839 47.3276 127.258 47.6601C127.676 47.9927 128.21 48.1589 128.859 48.1589ZM138.934 49.4644C138.146 49.4644 137.45 49.2653 136.847 48.8671C136.244 48.4648 135.771 47.8982 135.431 47.1675C135.09 46.4327 134.92 45.5644 134.92 44.5628C134.92 43.5693 135.09 42.7072 135.431 41.9765C135.771 41.2458 136.246 40.6813 136.853 40.2831C137.461 39.8849 138.163 39.6858 138.959 39.6858C139.575 39.6858 140.061 39.7884 140.419 39.9937C140.78 40.1948 141.055 40.4247 141.244 40.6834C141.437 40.9379 141.586 41.1472 141.693 41.3114H141.816V36.6561H143.27V49.2673H141.866V47.8141H141.693C141.586 47.9865 141.435 48.2041 141.238 48.4668C141.04 48.7254 140.759 48.9574 140.394 49.1627C140.029 49.3638 139.542 49.4644 138.934 49.4644ZM139.132 48.1589C139.714 48.1589 140.207 48.007 140.609 47.7033C141.012 47.3954 141.318 46.9705 141.527 46.4286C141.736 45.8826 141.841 45.2524 141.841 44.5381C141.841 43.832 141.738 43.2142 141.533 42.6846C141.328 42.151 141.024 41.7363 140.622 41.4408C140.219 41.1411 139.723 40.9912 139.132 40.9912C138.516 40.9912 138.003 41.1493 137.592 41.4654C137.186 41.7774 136.88 42.2023 136.675 42.7401C136.473 43.2737 136.373 43.8731 136.373 44.5381C136.373 45.2114 136.475 45.8231 136.681 46.3732C136.89 46.9192 137.198 47.3543 137.604 47.6786C138.015 47.9988 138.524 48.1589 139.132 48.1589ZM150.099 49.4644C149.187 49.4644 148.401 49.2632 147.74 48.8609C147.083 48.4545 146.576 47.888 146.219 47.1614C145.866 46.4306 145.69 45.5809 145.69 44.612C145.69 43.6432 145.866 42.7893 146.219 42.0504C146.576 41.3073 147.073 40.7285 147.709 40.3139C148.35 39.8952 149.097 39.6858 149.951 39.6858C150.443 39.6858 150.93 39.7679 151.41 39.9321C151.891 40.0963 152.328 40.3631 152.722 40.7326C153.116 41.098 153.43 41.5824 153.664 42.1859C153.898 42.7893 154.015 43.5324 154.015 44.415V45.0308H146.724V43.7746H152.537C152.537 43.2409 152.43 42.7647 152.217 42.346C152.008 41.9272 151.708 41.5968 151.318 41.3546C150.932 41.1123 150.476 40.9912 149.951 40.9912C149.372 40.9912 148.871 41.1349 148.448 41.4223C148.03 41.7055 147.707 42.075 147.482 42.5307C147.256 42.9864 147.143 43.4749 147.143 43.9963V44.8337C147.143 45.548 147.266 46.1535 147.512 46.6503C147.763 47.1429 148.11 47.5185 148.553 47.7771C148.996 48.0317 149.512 48.1589 150.099 48.1589C150.48 48.1589 150.825 48.1056 151.133 47.9988C151.445 47.888 151.714 47.7238 151.94 47.5062C152.166 47.2845 152.34 47.0095 152.463 46.6811L153.867 47.0752C153.719 47.5514 153.471 47.9701 153.122 48.3313C152.773 48.6885 152.342 48.9677 151.829 49.1688C151.316 49.3659 150.739 49.4644 150.099 49.4644Z" fill="#42B983"/>
<path d="M68.9472 38.7284L51.5174 40.9994L43.8516 25.9967L56.5432 14.4538L72.0526 22.3224L68.9472 38.7284Z" fill="white"/>
</g>
<defs>
<clipPath id="clip0_1_2">
<rect width="300" height="55" fill="white"/>
</clipPath>
</defs>
</svg>
