<svg xmlns="http://www.w3.org/2000/svg" viewBox="0 0 500 500"><g id="freepik--background-complete--inject-2"><rect y="382.4" width="500" height="0.25" style="fill:#e0e0e0"></rect><rect x="107.71" y="393.89" width="13.2" height="0.25" style="fill:#e0e0e0"></rect><rect x="80.36" y="394.01" width="20.02" height="0.25" style="fill:#e0e0e0"></rect><rect x="167" y="392.33" width="51.99" height="0.25" style="fill:#e0e0e0"></rect><rect x="211.1" y="389.63" width="27.9" height="0.25" style="fill:#e0e0e0"></rect><rect x="335.33" y="397.54" width="65.1" height="0.25" style="fill:#e0e0e0"></rect><rect x="313.76" y="397.54" width="16.02" height="0.25" style="fill:#e0e0e0"></rect><rect x="390.04" y="391.5" width="28.63" height="0.25" style="fill:#e0e0e0"></rect><path d="M237,337.8H43.91a5.71,5.71,0,0,1-5.7-5.71V60.66A5.71,5.71,0,0,1,43.91,55H237a5.71,5.71,0,0,1,5.71,5.71V332.09A5.71,5.71,0,0,1,237,337.8ZM43.91,55.2a5.46,5.46,0,0,0-5.45,5.46V332.09a5.46,5.46,0,0,0,5.45,5.46H237a5.47,5.47,0,0,0,5.46-5.46V60.66A5.47,5.47,0,0,0,237,55.2Z" style="fill:#e0e0e0"></path><path d="M453.31,337.8H260.21a5.72,5.72,0,0,1-5.71-5.71V60.66A5.72,5.72,0,0,1,260.21,55h193.1A5.71,5.71,0,0,1,459,60.66V332.09A5.71,5.71,0,0,1,453.31,337.8ZM260.21,55.2a5.47,5.47,0,0,0-5.46,5.46V332.09a5.47,5.47,0,0,0,5.46,5.46h193.1a5.47,5.47,0,0,0,5.46-5.46V60.66a5.47,5.47,0,0,0-5.46-5.46Z" style="fill:#e0e0e0"></path><polygon points="151.22 195.84 188.23 167.49 188.23 382.4 151.22 382.4 151.22 195.84" style="fill:#f5f5f5"></polygon><polygon points="207.44 182 188.23 167.49 188.23 382.4 207.44 382.4 207.44 182" style="fill:#ebebeb"></polygon><rect x="205.16" y="223.35" width="52.67" height="159.05" transform="translate(462.99 605.75) rotate(180)" style="fill:#f5f5f5"></rect><rect x="257.83" y="223.35" width="27.33" height="159.05" style="fill:#ebebeb"></rect><rect x="212.25" y="209.59" width="45.58" height="13.76" transform="translate(470.07 432.94) rotate(180)" style="fill:#f5f5f5"></rect><rect x="212.25" y="220.26" width="45.58" height="3.09" transform="translate(470.07 443.61) rotate(180)" style="fill:#ebebeb"></rect><rect x="257.83" y="209.59" width="20.25" height="13.76" style="fill:#ebebeb"></rect><rect x="219.33" y="195.84" width="38.49" height="13.76" transform="translate(477.16 405.43) rotate(180)" style="fill:#f5f5f5"></rect><rect x="219.33" y="206.5" width="38.49" height="3.09" transform="translate(477.16 416.1) rotate(180)" style="fill:#ebebeb"></rect><rect x="257.83" y="195.84" width="13.16" height="13.76" style="fill:#ebebeb"></rect><rect x="243.88" y="176.61" width="2.56" height="19.22" style="fill:#ebebeb"></rect><rect x="276.43" y="247.41" width="38.46" height="134.99" transform="translate(591.33 629.81) rotate(180)" style="fill:#f5f5f5"></rect><rect x="314.89" y="247.41" width="19.96" height="134.99" style="fill:#ebebeb"></rect><polygon points="96.16 230.78 125.33 223.24 125.33 382.4 96.16 382.4 96.16 230.78" style="fill:#f5f5f5"></polygon><rect x="125.33" y="223.24" width="15.14" height="159.16" style="fill:#ebebeb"></rect><rect x="345.41" y="247.72" width="26.56" height="134.68" transform="translate(717.38 630.11) rotate(180)" style="fill:#f5f5f5"></rect><polygon points="385.76 283.05 371.97 247.72 371.97 382.4 385.76 382.4 385.76 283.05" style="fill:#ebebeb"></polygon><rect x="377.77" y="279.72" width="21.69" height="102.68" transform="translate(777.23 662.11) rotate(180)" style="fill:#f5f5f5"></rect><polygon points="410.71 301.67 399.46 279.72 399.46 382.4 410.71 382.4 410.71 301.67" style="fill:#ebebeb"></polygon><path d="M459,382.4H90.37s79.55-20,117.81-38,44.95-10.14,67.52,2.86,44.15,12.81,75.52-1.33C427.87,311.34,426.33,370.17,459,382.4Z" style="fill:#ebebeb"></path><path d="M16.11,382.4H410.78s-23.33-.07-69.67-18.07-65-16-92.33-3-32.32-13.11-100-27.89C64.56,315.06,50.61,382.4,16.11,382.4Z" style="fill:#e0e0e0"></path><circle cx="308.94" cy="130.93" r="32.04" transform="translate(-26.56 136.24) rotate(-23.87)" style="fill:#f5f5f5"></circle><path d="M63.89,129.81c-5.8-12.53-1.2-21.46,13-21.46,8.89,0,19.92,3.51,30.65,9.23,1.22-3.26,4.63-5.21,10.13-5.21,9.67,0,23,6,33.46,14.55,2.53-1.9,6.19-3.06,10.9-3.25,9.26-.38,20.47,3.09,30.22,8.73a5.91,5.91,0,0,1,4.29-1.62c5.33-.22,12.55,3.28,16.14,7.81l.62.83H56.68C51.74,135,57.2,130,63.89,129.81Z" style="fill:#ebebeb"></path><path d="M295.35,156.61a12.08,12.08,0,0,1,1.35-.07c-.42-4.65,2-7.62,7.13-7.62,3.72,0,8.27,1.55,12.92,4.17-1.33-9,2.92-14.89,12.55-14.89,7.78,0,17.61,3.82,27.33,10,.85-3.54,3.72-5.66,8.53-5.66,8.45,0,20.46,6.55,30.09,15.8h0c2.08-2.06,5.21-3.33,9.31-3.54,8.05-.41,18,3.35,26.9,9.49a4.34,4.34,0,0,1,3.66-1.76c4.4-.23,10.46,3.16,14,7.69H288.27C284.5,163.39,287.5,157.38,295.35,156.61Z" style="fill:#ebebeb"></path></g><g id="freepik--Shadow--inject-2"><ellipse cx="250" cy="416.24" rx="193.89" ry="11.32" style="fill:#f5f5f5"></ellipse></g><g id="freepik--Character--inject-2"><polygon points="252.76 398.63 258.63 403.89 269.82 392.24 263.94 386.98 252.76 398.63" style="fill:#e4897b"></polygon><polygon points="272.89 409.57 280.3 409.57 281.26 392.41 273.85 392.41 272.89 409.57" style="fill:#e4897b"></polygon><path d="M280.69,408.72h-8.33a.53.53,0,0,0-.55.5l-.4,6.59a1.31,1.31,0,0,0,1.29,1.32c2.9-.05,4.29-.22,7.95-.22,2.26,0,11.84.24,15,.24s3-3.08,1.7-3.36c-5.91-1.25-13.24-3-15.33-4.62A2.14,2.14,0,0,0,280.69,408.72Z" style="fill:#263238"></path><path d="M260.26,401.78,253.11,397a.66.66,0,0,0-.82,0l-5.46,5.51a1.1,1.1,0,0,0,.27,1.67c4.55,3.51,7.85,6.16,10.44,9.08,3,3.41,4.63,3.9,11.63,3.9,3.23,0,5.07-2.73,3.75-3.15-11.67-3.69-8.55-5.3-11.38-10.71A4.06,4.06,0,0,0,260.26,401.78Z" style="fill:#263238"></path><path d="M308.68,163.41c.14.44.36,1.11.56,1.67l.65,1.79c.44,1.19.92,2.37,1.43,3.54a68.6,68.6,0,0,0,3.36,6.76c2.45,4.31,5.44,8.2,9,10.69l.62.42a.07.07,0,0,1,0,.05s0,.06.15.08a4,4,0,0,0,1.93-.52,25.66,25.66,0,0,0,5.6-4.07,74.3,74.3,0,0,0,5.48-5.58c1.79-2,3.54-4.06,5.19-6.09l4.76,2.88a70.67,70.67,0,0,1-9.26,14.67,31.09,31.09,0,0,1-7.11,6.45,14.13,14.13,0,0,1-5.83,2.13,10.55,10.55,0,0,1-3.94-.36,10.24,10.24,0,0,1-1.9-.78l-1.15-.65a32.66,32.66,0,0,1-7.52-6.2,47.33,47.33,0,0,1-5.55-7.4,62.27,62.27,0,0,1-4.17-8c-.6-1.36-1.15-2.73-1.67-4.13-.25-.7-.51-1.4-.74-2.11s-.43-1.39-.68-2.28Z" style="fill:#e4897b"></path><path d="M295.16,162c-2.27,6.64,11.07,26.17,11.07,26.17L319,181.08a149,149,0,0,0-7.68-17.8C306.83,154.84,297.65,154.71,295.16,162Z" style="fill:#263238"></path><path d="M295,162.83c2.86-1.37,6.16-.22,9.62,5.26s6.42,14.63,6.75,17.24l-5.11,2.83S293.92,170.12,295,162.83Z" style="fill:#407BFF"></path><path d="M295,162.83c2.86-1.37,6.16-.22,9.62,5.26s6.42,14.63,6.75,17.24l-5.11,2.83S293.92,170.12,295,162.83Z" style="opacity:0.8"></path><path d="M342.34,172l2.65-6.44,5.94,4.54s-3.61,7.27-6.06,6.61Z" style="fill:#e4897b"></path><polygon points="353.42 164.69 356.19 168.1 350.93 170.06 344.99 165.51 353.42 164.69" style="fill:#e4897b"></polygon><polygon points="269.81 392.24 264.05 398.25 258.17 392.98 263.94 386.98 269.81 392.24" style="fill:#ce6f64"></polygon><polygon points="273.85 392.41 281.26 392.41 280.76 401.26 273.35 401.26 273.85 392.41" style="fill:#ce6f64"></polygon><path d="M303.79,156.92s9.53,22.39,2.66,64.08H266.8c-.49-6.09,2.31-35.78-4.56-64.46a101.24,101.24,0,0,1,13.22-1.68,148.07,148.07,0,0,1,16.86,0A76.17,76.17,0,0,1,303.79,156.92Z" style="fill:#263238"></path><path d="M271.1,163.62c.83,4.72-.27,16-4.31,29.06a190.75,190.75,0,0,0-3.9-33.29v-.06C265.49,159.07,270.32,159.19,271.1,163.62Z" style="fill:#407BFF"></path><path d="M271.1,163.62c.83,4.72-.27,16-4.31,29.06a190.75,190.75,0,0,0-3.9-33.29v-.06C265.49,159.07,270.32,159.19,271.1,163.62Z" style="opacity:0.8"></path><path d="M276.47,135.88c1.25,5.42,2.66,15.36-1,19,0,0,1.58,4.49,11.66,4.49,11.08,0,5.2-4.49,5.2-4.49-6.1-1.44-6.1-5.93-5.19-10.14Z" style="fill:#e4897b"></path><path d="M280.81,139.49l6.31,5.22a17.35,17.35,0,0,0-.42,3c-2.32-.33-5.58-2.87-5.91-5.29A8.34,8.34,0,0,1,280.81,139.49Z" style="fill:#ce6f64"></path><path d="M289.62,117.5c3.8,1.29,6.82,11.34,2.4,14S282.43,115.05,289.62,117.5Z" style="fill:#263238"></path><path d="M274.1,130.2c2.26,7,3.22,11.23,7.78,14.1a9.59,9.59,0,0,0,14.77-8.38c-.09-6.73-3.77-17.09-11.51-18.39A9.71,9.71,0,0,0,274.1,130.2Z" style="fill:#e4897b"></path><path d="M266.56,119.61c-3.34,1.89-5,6.84-1.45,11,4.61,5.39,12.57,8.7,14.76,6.53,3.64-1.55,2.51-4.13-2.87-12,2.25-.22,17.65-1.28,20.89-10.08,1.78-4.84-5.51-11-13.22-11.39C287.67,111.22,267.12,111,266.56,119.61Z" style="fill:#263238"></path><path d="M272.86,138.75a7.34,7.34,0,0,0,5,2.07c2.47,0,3-2.34,1.66-4.3-1.17-1.76-3.87-3.88-6.06-2.93S271.22,137.14,272.86,138.75Z" style="fill:#e4897b"></path><path d="M306.45,221s7.81,54.06,10.48,83.48c2.14,23.61-48.91,94-48.91,94l-9.88-9.29s37.29-63.11,34.42-89.39C289.78,274.38,280.35,221,280.35,221Z" style="fill:#407BFF"></path><path d="M306.45,221s7.81,54.06,10.48,83.48c2.14,23.61-48.91,94-48.91,94l-9.88-9.29s37.29-63.11,34.42-89.39C289.78,274.38,280.35,221,280.35,221Z" style="fill:#fff;opacity:0.5"></path><path d="M292.55,299.83c-1.43-13.11-4.63-33.65-7.38-50.47,1.44-2.82,5.48-8.53,5.48-8.53,3.62,12.51,11.49,59.67.26,123.36-11.7,18.86-22.9,34.32-22.9,34.32l-1.53-24.32C277.29,353.85,294.54,318,292.55,299.83Z" style="fill:#407BFF"></path><path d="M292.55,299.83c-1.43-13.11-4.63-33.65-7.38-50.47,1.44-2.82,5.48-8.53,5.48-8.53,3.62,12.51,11.49,59.67.26,123.36-11.7,18.86-22.9,34.32-22.9,34.32l-1.53-24.32C277.29,353.85,294.54,318,292.55,299.83Z" style="fill:#fff;opacity:0.30000000000000004"></path><polygon points="257.54 388.66 268.62 399.08 272.18 395.25 259.51 383.71 257.54 388.66" style="fill:#407BFF"></polygon><polygon points="257.54 388.66 268.62 399.08 272.18 395.25 259.51 383.71 257.54 388.66" style="opacity:0.2"></polygon><path d="M292.35,221s.71,56.65-.5,77.88c-1.31,23.24-7.91,100.25-7.91,100.25H270.37S270.77,324,270,301c-.88-25-3.18-80-3.18-80Z" style="fill:#407BFF"></path><path d="M292.35,221s.71,56.65-.5,77.88c-1.31,23.24-7.91,100.25-7.91,100.25H270.37S270.77,324,270,301c-.88-25-3.18-80-3.18-80Z" style="fill:#fff;opacity:0.5"></path><polygon points="269.82 399.13 284.49 399.13 285.31 393.97 269.11 394.78 269.82 399.13" style="fill:#407BFF"></polygon><polygon points="269.82 399.13 284.49 399.13 285.31 393.97 269.11 394.78 269.82 399.13" style="opacity:0.2"></polygon><path d="M285,130c.14.58.57,1,1,.9s.57-.62.42-1.2-.58-1-1-.9S284.82,129.4,285,130Z" style="fill:#263238"></path><path d="M291.57,128.54c.15.58.58,1,1,.9s.57-.62.42-1.2-.58-1-1-.9S291.42,128,291.57,128.54Z" style="fill:#263238"></path><path d="M290.07,129.11a22.57,22.57,0,0,0,4.05,4.35,3.39,3.39,0,0,1-2.65,1.13Z" style="fill:#de5753"></path><path d="M289.32,137.2A5.08,5.08,0,0,1,286,136a.17.17,0,1,1,.24-.25,5,5,0,0,0,4.24,1,.18.18,0,0,1,.21.13.17.17,0,0,1-.14.21A5.38,5.38,0,0,1,289.32,137.2Z" style="fill:#263238"></path><path d="M282.87,128.14l-.14,0a.35.35,0,0,1-.18-.46,3.41,3.41,0,0,1,2.44-2,.35.35,0,0,1,.11.7h0a2.66,2.66,0,0,0-1.9,1.61A.36.36,0,0,1,282.87,128.14Z" style="fill:#263238"></path><path d="M294.43,125.85a.31.31,0,0,1-.29-.06,3,3,0,0,0-2.54-.54.33.33,0,0,1-.44-.22.34.34,0,0,1,.22-.44,3.62,3.62,0,0,1,3.18.64.35.35,0,0,1,.07.49A.34.34,0,0,1,294.43,125.85Z" style="fill:#263238"></path><path d="M269.81,167.68l-1.76,3q-.89,1.56-1.74,3.15c-1.13,2.12-2.23,4.25-3.28,6.39s-2,4.31-2.89,6.48a66,66,0,0,0-2.25,6.5l-.12.41-.06.2c0,.07,0,0,0,.05s0,.09-.05.18a3.53,3.53,0,0,0,0,.93,13.64,13.64,0,0,0,.59,2.78,48.9,48.9,0,0,0,2.53,6.34c2,4.29,4.43,8.67,6.86,12.89l-4.39,3.43a84.65,84.65,0,0,1-9.88-12.13,47.67,47.67,0,0,1-4-7.21,23.11,23.11,0,0,1-1.46-4.46,14.06,14.06,0,0,1-.31-2.82,11.45,11.45,0,0,1,.13-1.69l.07-.42.05-.25.1-.51a73.7,73.7,0,0,1,5-15.35c1-2.41,2.2-4.77,3.43-7.08.61-1.16,1.25-2.3,1.9-3.44s1.31-2.23,2.1-3.44Z" style="fill:#e4897b"></path><path d="M262.24,156.54c-7,1-14.17,25.32-14.17,25.32l15,8.32s6.09-11.56,9-20.14C275.12,161.05,269.73,155.44,262.24,156.54Z" style="fill:#263238"></path><path d="M283.32,410a8.94,8.94,0,0,1-2-.27.17.17,0,0,1-.13-.13.2.2,0,0,1,.07-.18c.24-.16,2.35-1.6,3.24-1.24a.63.63,0,0,1,.4.49,1,1,0,0,1-.21.94A2,2,0,0,1,283.32,410Zm-1.5-.52c1.32.27,2.3.23,2.65-.12a.63.63,0,0,0,.12-.62.32.32,0,0,0-.19-.24C283.91,408.33,282.68,409,281.82,409.49Z" style="fill:#407BFF"></path><path d="M281.38,409.75l-.08,0a.17.17,0,0,1-.09-.14c0-.09-.17-2.22.57-2.94a.83.83,0,0,1,.74-.24.65.65,0,0,1,.62.52c.17.81-.93,2.35-1.67,2.79Zm1-3a.53.53,0,0,0-.37.15,3.92,3.92,0,0,0-.48,2.36c.64-.54,1.38-1.72,1.26-2.25,0-.1-.07-.22-.33-.25Z" style="fill:#407BFF"></path><path d="M265.06,405.79a9.21,9.21,0,0,1-3.7-1.42.17.17,0,0,1-.08-.19.16.16,0,0,1,.15-.13c.4,0,3.91-.27,4.58.54a.51.51,0,0,1,.11.49.88.88,0,0,1-.53.62A1.26,1.26,0,0,1,265.06,405.79Zm-3-1.43c1.6.88,2.86,1.26,3.42,1a.53.53,0,0,0,.33-.39.2.2,0,0,0,0-.18C265.38,404.37,263.47,404.3,262,404.36Z" style="fill:#407BFF"></path><path d="M261.44,404.39a.17.17,0,0,1-.14-.08.15.15,0,0,1,0-.16c0-.12,1.39-2.84,3.1-2,.47.22.52.5.48.7-.17.8-2.4,1.54-3.42,1.56Zm2.32-2.07c-.92,0-1.7,1.16-2,1.7,1.06-.13,2.68-.8,2.78-1.27,0-.1-.07-.21-.29-.31A1.07,1.07,0,0,0,263.76,402.32Z" style="fill:#407BFF"></path><path d="M265.63,215.38l7.38-1.29-3.78,8.55s-6.74,0-6.43-3.52Z" style="fill:#e4897b"></path><polygon points="278.52 218.39 275.05 225.29 269.23 222.64 273.01 214.09 278.52 218.39" style="fill:#e4897b"></polygon></g><g id="freepik--Bridge--inject-2"><path d="M219.55,321.11c-58.58,0-106.24-73-106.24-162.69a1,1,0,0,1,2,0c0,88.61,46.76,160.69,104.24,160.69S323.78,247,323.78,158.42a1,1,0,1,1,2,0C325.78,248.13,278.12,321.11,219.55,321.11Z" style="fill:#407BFF"></path><path d="M219.55,321.11c-58.58,0-106.24-73-106.24-162.69a1,1,0,0,1,2,0c0,88.61,46.76,160.69,104.24,160.69S323.78,247,323.78,158.42a1,1,0,1,1,2,0C325.78,248.13,278.12,321.11,219.55,321.11Z" style="fill:#fff;opacity:0.1"></path><rect x="114.31" y="286.1" width="57.86" height="11.74" style="fill:#407BFF"></rect><rect x="114.31" y="245.23" width="57.86" height="11.74" style="fill:#407BFF"></rect><rect x="114.31" y="204.37" width="57.86" height="11.74" style="fill:#407BFF"></rect><rect x="114.31" y="168.1" width="57.86" height="11.74" style="fill:#407BFF"></rect><g style="opacity:0.1"><rect x="114.31" y="286.1" width="57.86" height="11.74" style="fill:#fff"></rect><rect x="114.31" y="245.23" width="57.86" height="11.74" style="fill:#fff"></rect><rect x="114.31" y="204.37" width="57.86" height="11.74" style="fill:#fff"></rect><rect x="114.31" y="168.1" width="57.86" height="11.74" style="fill:#fff"></rect></g><rect x="160.04" y="286.1" width="12.73" height="11.74" style="fill:#407BFF"></rect><rect x="160.04" y="286.1" width="12.73" height="11.74" style="opacity:0.30000000000000004"></rect><rect x="160.95" y="245.23" width="12.73" height="11.74" style="fill:#407BFF"></rect><rect x="160.95" y="245.23" width="12.73" height="11.74" style="opacity:0.30000000000000004"></rect><rect x="161.76" y="204.37" width="12.73" height="11.74" style="fill:#407BFF"></rect><rect x="161.76" y="204.37" width="12.73" height="11.74" style="opacity:0.30000000000000004"></rect><rect x="162.56" y="168.1" width="12.73" height="11.74" style="fill:#407BFF"></rect><rect x="162.56" y="168.1" width="12.73" height="11.74" style="opacity:0.30000000000000004"></rect><rect x="163.89" y="391.5" width="16.57" height="24.55" style="fill:#407BFF"></rect><rect x="163.89" y="391.5" width="16.57" height="24.55" style="fill:#fff;opacity:0.1"></rect><rect x="164.8" y="245.23" width="14.76" height="40.86" style="fill:#407BFF"></rect><rect x="164.8" y="245.23" width="14.76" height="40.86" style="fill:#fff;opacity:0.1"></rect><rect x="165.6" y="204.37" width="13.15" height="40.86" style="fill:#407BFF"></rect><rect x="165.6" y="204.37" width="13.15" height="40.86" style="fill:#fff;opacity:0.1"></rect><rect x="166.41" y="163.51" width="11.54" height="40.86" style="fill:#407BFF"></rect><rect x="166.41" y="163.51" width="11.54" height="40.86" style="fill:#fff;opacity:0.1"></rect><rect x="316.49" y="286.1" width="16.57" height="105.4" style="fill:#407BFF"></rect><rect x="316.49" y="286.1" width="16.57" height="105.4" style="fill:#fff;opacity:0.1"></rect><polygon points="333.07 337.55 316.49 337.55 316.49 350.83 333.07 359.17 333.07 337.55" style="fill:#407BFF"></polygon><polygon points="333.07 337.55 316.49 337.55 316.49 350.83 333.07 359.17 333.07 337.55" style="opacity:0.30000000000000004"></polygon><rect x="106.03" y="286.1" width="16.57" height="105.4" style="fill:#407BFF"></rect><rect x="106.03" y="286.1" width="16.57" height="105.4" style="fill:#fff;opacity:0.1"></rect><polygon points="122.6 337.55 106.03 337.55 106.03 350.83 122.6 359.17 122.6 337.55" style="fill:#407BFF"></polygon><polygon points="122.6 337.55 106.03 337.55 106.03 350.83 122.6 359.17 122.6 337.55" style="opacity:0.30000000000000004"></polygon><rect x="73.08" y="328.64" width="15.04" height="1" style="fill:#407BFF"></rect><rect x="73.08" y="328.64" width="15.04" height="1" style="fill:#fff;opacity:0.1"></rect><rect x="66.85" y="328.64" width="4" height="1" style="fill:#407BFF"></rect><rect x="66.85" y="328.64" width="4" height="1" style="fill:#fff;opacity:0.1"></rect><rect x="56.11" y="332.14" width="387.78" height="11.32" style="fill:#407BFF"></rect><rect x="56.11" y="332.14" width="387.78" height="11.32" style="fill:#fff;opacity:0.1"></rect><rect x="172.18" y="332.14" width="14.82" height="11.32" style="fill:#407BFF"></rect><rect x="172.18" y="332.14" width="14.82" height="11.32" style="opacity:0.30000000000000004"></rect><rect x="163.89" y="286.1" width="16.57" height="105.4" style="fill:#407BFF"></rect><rect x="163.89" y="286.1" width="16.57" height="105.4" style="fill:#fff;opacity:0.1"></rect><rect x="162.18" y="391.5" width="20" height="24.55" style="fill:#407BFF"></rect><rect x="162.18" y="391.5" width="20" height="24.55" style="fill:#fff;opacity:0.1"></rect><rect x="104.31" y="391.5" width="20" height="24.55" style="fill:#407BFF"></rect><rect x="104.31" y="391.5" width="20" height="24.55" style="fill:#fff;opacity:0.1"></rect><rect x="106.94" y="245.23" width="14.76" height="40.86" style="fill:#407BFF"></rect><rect x="106.94" y="245.23" width="14.76" height="40.86" style="fill:#fff;opacity:0.1"></rect><rect x="107.74" y="204.37" width="13.15" height="40.86" style="fill:#407BFF"></rect><rect x="107.74" y="204.37" width="13.15" height="40.86" style="fill:#fff;opacity:0.1"></rect><rect x="108.55" y="163.51" width="11.54" height="40.86" style="fill:#407BFF"></rect><rect x="108.55" y="163.51" width="11.54" height="40.86" style="fill:#fff;opacity:0.1"></rect><path d="M175.68,163.51h-7v-6.68a3.5,3.5,0,0,1,3.5-3.5h0a3.5,3.5,0,0,1,3.5,3.5Z" style="fill:#407BFF"></path><path d="M175.68,163.51h-7v-6.68a3.5,3.5,0,0,1,3.5-3.5h0a3.5,3.5,0,0,1,3.5,3.5Z" style="fill:#fff;opacity:0.1"></path><path d="M117.81,163.51h-7v-6.68a3.5,3.5,0,0,1,3.5-3.5h0a3.5,3.5,0,0,1,3.5,3.5Z" style="fill:#407BFF"></path><path d="M117.81,163.51h-7v-6.68a3.5,3.5,0,0,1,3.5-3.5h0a3.5,3.5,0,0,1,3.5,3.5Z" style="fill:#fff;opacity:0.1"></path><rect x="324.78" y="286.1" width="57.86" height="11.74" style="fill:#407BFF"></rect><rect x="324.78" y="245.23" width="57.86" height="11.74" style="fill:#407BFF"></rect><rect x="324.78" y="204.37" width="57.86" height="11.74" style="fill:#407BFF"></rect><rect x="324.78" y="168.1" width="57.86" height="11.74" style="fill:#407BFF"></rect><g style="opacity:0.1"><rect x="324.78" y="286.1" width="57.86" height="11.74" style="fill:#fff"></rect><rect x="324.78" y="245.23" width="57.86" height="11.74" style="fill:#fff"></rect><rect x="324.78" y="204.37" width="57.86" height="11.74" style="fill:#fff"></rect><rect x="324.78" y="168.1" width="57.86" height="11.74" style="fill:#fff"></rect></g><rect x="370.51" y="286.1" width="12.73" height="11.74" style="fill:#407BFF"></rect><rect x="370.51" y="286.1" width="12.73" height="11.74" style="opacity:0.30000000000000004"></rect><rect x="371.41" y="245.23" width="12.73" height="11.74" style="fill:#407BFF"></rect><rect x="371.41" y="245.23" width="12.73" height="11.74" style="opacity:0.30000000000000004"></rect><rect x="372.22" y="204.37" width="12.73" height="11.74" style="fill:#407BFF"></rect><rect x="372.22" y="204.37" width="12.73" height="11.74" style="opacity:0.30000000000000004"></rect><rect x="373.03" y="168.1" width="12.73" height="11.74" style="fill:#407BFF"></rect><rect x="373.03" y="168.1" width="12.73" height="11.74" style="opacity:0.30000000000000004"></rect><rect x="374.35" y="391.5" width="16.57" height="24.55" style="fill:#407BFF"></rect><rect x="374.35" y="391.5" width="16.57" height="24.55" style="fill:#fff;opacity:0.1"></rect><rect x="375.26" y="245.23" width="14.76" height="40.86" style="fill:#407BFF"></rect><rect x="375.26" y="245.23" width="14.76" height="40.86" style="fill:#fff;opacity:0.1"></rect><rect x="376.07" y="204.37" width="13.15" height="40.86" style="fill:#407BFF"></rect><rect x="376.07" y="204.37" width="13.15" height="40.86" style="fill:#fff;opacity:0.1"></rect><rect x="376.87" y="163.51" width="11.54" height="40.86" style="fill:#407BFF"></rect><rect x="376.87" y="163.51" width="11.54" height="40.86" style="fill:#fff;opacity:0.1"></rect><rect x="382.64" y="332.14" width="14.82" height="11.32" style="fill:#407BFF"></rect><rect x="382.64" y="332.14" width="14.82" height="11.32" style="opacity:0.30000000000000004"></rect><rect x="374.35" y="286.1" width="16.57" height="105.4" style="fill:#407BFF"></rect><rect x="374.35" y="286.1" width="16.57" height="105.4" style="fill:#fff;opacity:0.1"></rect><rect x="372.64" y="391.5" width="20" height="24.55" style="fill:#407BFF"></rect><rect x="372.64" y="391.5" width="20" height="24.55" style="fill:#fff;opacity:0.1"></rect><rect x="314.78" y="391.5" width="20" height="24.55" style="fill:#407BFF"></rect><rect x="314.78" y="391.5" width="20" height="24.55" style="fill:#fff;opacity:0.1"></rect><rect x="317.4" y="245.23" width="14.76" height="40.86" style="fill:#407BFF"></rect><rect x="317.4" y="245.23" width="14.76" height="40.86" style="fill:#fff;opacity:0.1"></rect><rect x="318.21" y="204.37" width="13.15" height="40.86" style="fill:#407BFF"></rect><rect x="318.21" y="204.37" width="13.15" height="40.86" style="fill:#fff;opacity:0.1"></rect><rect x="319.01" y="163.51" width="11.54" height="40.86" style="fill:#407BFF"></rect><rect x="319.01" y="163.51" width="11.54" height="40.86" style="fill:#fff;opacity:0.1"></rect><path d="M386.14,163.51h-7v-6.68a3.5,3.5,0,0,1,3.5-3.5h0a3.5,3.5,0,0,1,3.5,3.5Z" style="fill:#407BFF"></path><path d="M386.14,163.51h-7v-6.68a3.5,3.5,0,0,1,3.5-3.5h0a3.5,3.5,0,0,1,3.5,3.5Z" style="fill:#fff;opacity:0.1"></path><path d="M328.28,163.51h-7v-6.68a3.5,3.5,0,0,1,3.5-3.5h0a3.5,3.5,0,0,1,3.5,3.5Z" style="fill:#407BFF"></path><path d="M328.28,163.51h-7v-6.68a3.5,3.5,0,0,1,3.5-3.5h0a3.5,3.5,0,0,1,3.5,3.5Z" style="fill:#fff;opacity:0.1"></path><path d="M277.41,321.11c-58.58,0-106.23-73-106.23-162.69a1,1,0,0,1,2,0c0,88.61,46.75,160.69,104.23,160.69S381.64,247,381.64,158.42a1,1,0,1,1,2,0C383.64,248.13,336,321.11,277.41,321.11Z" style="fill:#407BFF"></path><path d="M277.41,321.11c-58.58,0-106.23-73-106.23-162.69a1,1,0,0,1,2,0c0,88.61,46.75,160.69,104.23,160.69S381.64,247,381.64,158.42a1,1,0,1,1,2,0C383.64,248.13,336,321.11,277.41,321.11Z" style="fill:#fff;opacity:0.1"></path></g></svg>